/* XPM */
static char *_d16b7e17bb94da2895dea28610ec9e61TTRUWopLV5nkC95[] = {
/* columns rows colors chars-per-pixel */
"64 64 75 1 ",
"  c #4D505F",
". c #4C525E",
"X c #4E525E",
"o c #4D5061",
"O c #4E5160",
"+ c #4F5160",
"@ c #4C5260",
"# c #4D5361",
"$ c #4F5261",
"% c #4E5162",
"& c #4F5263",
"* c #545766",
"= c #545864",
"- c #555965",
"; c #555867",
": c #5B5F68",
"> c #5D5F6B",
", c #5D6067",
"< c #5C6069",
"1 c #5D6069",
"2 c #63666D",
"3 c #64676E",
"4 c #66666E",
"5 c #7D7C7A",
"6 c #7E7D7B",
"7 c #9D9087",
"8 c #B09D8C",
"9 c #B19E8D",
"0 c #B39D8F",
"q c #B19E8F",
"w c #B29F8E",
"e c #B29F90",
"r c #B29F91",
"t c #B9A48F",
"y c #B9A491",
"u c #BAA590",
"i c #BBA590",
"p c #BBA691",
"a c #B9A493",
"s c #BBA492",
"d c #BAA592",
"f c #B8A692",
"g c #B9A793",
"h c #BBA693",
"j c #B8A594",
"k c #BBA494",
"l c #BAA594",
"z c #EBE3D6",
"x c #ECE3D4",
"c c #EEE2D4",
"v c #ECE2D6",
"b c #EDE3D7",
"n c #EEE2D6",
"m c #EDE4D5",
"M c #F4EBDA",
"N c #F6EADA",
"B c #F4EBDC",
"V c #F6EADC",
"C c #F5ECDD",
"Z c #FEF3E1",
"A c #FCF3E2",
"S c #FEF2E2",
"D c #FFF2E2",
"F c #FFF3E2",
"G c #FFF3E3",
"H c #FDF5E2",
"J c #FDF4E3",
"K c #FFF4E2",
"L c #FEF2E4",
"P c #FFF2E5",
"I c #FFF3E5",
"U c #FDF4E5",
"Y c #FFF4E4",
"T c #FEF5E4",
"R c #FFF4E6",
/* pixels */
"GGGGGGGGGGGGGGGIGGGGYGGGGYGGGGGGGGGGGGGGGGGIGGGJGGIGGGGGGGGGGGGG",
"vIGGGGGssGJIGGGGGGJNGGGOOGGGGGvGGGGJGGGssGGGGJGGGGGGGGJOOIIGGGYG",
"JGGGYGssssGIGGvGGGGGGYOOOOGGGGGGIGGGIGssssGGGGGGGvYGGJOOOOGGGGGG",
"IGGGGssssssGGGYGYGGGGOOOO OGGGGIGVGGIssskssJGGGGGGGGGOOOOOOGGGGG",
"GGJGskssssssYGGGYGGGOO O :OOGJGIGGJGssssssssGGGGGGGGOOOOOOOOGGGG",
"IGGssssssssssGGGGGGOOOOOOOOOOGGGGGGssssss6sssGJGJGYOOOOOOOOOOGIG",
"GGssssssswssssGGGGOOOOOOOOOOOOGGYGsssssfssssssGGGGOOOO OO1OOOOIG",
"Yssrsss6sssssssGGOOOOOOOOO OOOOGGsssfkwssssssssYGOOOO=OOOOOOOOOG",
"GssssssssssssssJGOOOOOOOO OOOOOGGssssssssssssssGG OOOOOOO OOOOOG",
"JGssssssssskssGGGYOOOOOO=OOOOOGGGGsswsssssssssGGGGOOOOOO OOOOOGG",
"GGGssssssssssGGGGGGOOOOOOOOOOGGGGGGsssssss7ssGGGGGGOOOO*OO OOGGG",
"GGGGssswssssGGIGGGGGOOOOOOOOGGGGGGYGssssrkssGGGGGGGGOOOOOOOOGGGG",
"JGGGGssssssGGGGGGGGGYOOOOOOGGGGYGYGGGssssssJIGGGGGGGGOOOOOOGGJYG",
"GIGGGGssssGJGGGGGGGGGGOOOOGGGGGGGGGGGGssssGGIGGGGGGGGGOOOOGGGIGG",
"GGIGGGGssJJJGGIGGGGGGGGOOGGGYGGVGGGYGGGssGGGGGGGGYGGGJGOOGGGYGNG",
"GGGGGGGGJJJJGvGGGGGGGGGYGGGGGGGGIIGGGIGYGGJGGGVGGGGGGGGGGGGGGGGG",
"GGGGGGYGGGGGGGGGGGYIGYGIGGGGGGGGIJzGGJGGGGGGGGGIYGvGGGGGYGIGGGII",
"GGvGGYGO GGGGGGGGGGGGGGssGGGGGGGGGGGGGGOOGGGGGJGGGGGGJGssGGGYGGG",
"GGGGJGOOOOGGGYGGGGGGGJssssGGGGGGGGGJGGOOOOGGGGGGJGGYJGssssGGGGGG",
"GGGGGOOOOOOGGJGGGGGGGssssssGGJGGGGGGGOOO OOGGGGGGGGGGssssssGGGYG",
"GGGGOOOOOOOOGGGGGGGYkssss7ssGGGGGYGJOOOOOOOOGGGGJGJIs7ssssssGYGG",
"GGGOOOOOOO OOGGGGGGssssssssssGGGGGGO,OOOOOOOOGGGGJGssssssssssGGG",
"GGOOO>OOO=OOOOGGGGssssssssssssJGGGOOOO OOOOOOOGGGGsssssssfswssGG",
"GOOOOOOOOOOOOO GGssss6sssssssssGGOOOO4OO=OOO OOGGssssssssssssssG",
"GOOOOOOOOOOOO OGGsssskssssfssssGGOOOOOOOO=OOOOOGIsssktsssskssssG",
"GYOOOOOOOOOOOOGGGGsssssswsssssGGGYOOOOOOOOOOOOGGGJsssss6ssssssGG",
"GGGOOOOOOOOOOGGGGGGssssssssssGGGGGGOOOOOOOOOOGGGYGGssssssssssGGG",
"GGGGOOOO=OOOGGGGGYGGssssssssGGGGGGGGOOOOO   GGGGGGGGssssssssGJGG",
"GGGGYOOOOOOGGGGIGGGGGssssssGGIGGGGGGYOOOOOOGGGYGYGGGGssssssGGGJG",
"GGGGGGOOOOGGGGGGGJGYGGssssGGGGGGGGGGGGOOOOGGGGNGGGGGGGssssGGGGGv",
"GGGGGGGOOGGGGGGGYGGGGGGssGGGGGGGGGGGGGGOOGGGGGGGGGGGGGGksGGIGGIG",
"GGGGGGGYGGGGGGGGGvGGGYGGGGGGGGCGGGGGGGGYGGGGGGIGIYGYGJGGGGGGGGGG",
"GGGGGGGGGIGYGGGYGGGGGYGIGGGGGGGIGGGGGGGGJGGGGGJGGvGGGGGGGGGGGGGG",
"GJGGGGGssJGGGGGGGGGGGJGOOGGGGGJGGGGJGGGssGGGGGGGGGGGGGGOOGGYGGGG",
"GGGGYGssssGGGGGJYGJGGGOOOOGGGGGGvGJGGGssskGGGGGGGGGGGGOOOOGGGGIG",
"GGGGGssssssGGGYGVGGGGOOO OOGGGGGGGGJGssskssGGGGGGGGGGOOOOOOGGGGG",
"GGGGssssssssJGGGGJGGOOOOOOOOGGGGGGGGssssssssGGYGGGGGOOOOOOOOGGGG",
"GYGsssss6ssssGGGGGGOO1OOOOOOOGGGGGYssswssssssGGGGGGOO OOO=OOOGGG",
"GJk7ssssssssssGGGGOO OOOOOOOOOGGGGskssssssssssGGGJOO OOOOOOOOOGG",
"GssssssssssrsssGGOOOOOOO=OOO OOGGsssssswsssswssIY OO=O OOOO OOOG",
"GssssssssssssssJGOOOOOOOOOOOOOOJGssss7sssssssssGIOOOOO OOOOOOOOG",
"GGsssswsssssssGJGYOOOOOOOOOOOOGGGGssssksssssssGGIGOOOO 1OOOOOOGG",
"GGYssksssssssGIGGGGOOOOOOO4OOYGGGGGssssksssssGYGIGGOOOOOO OOOGGG",
"YGGGssssssssGGGGGGGGOOOOOOOOGGGGGGGGksssssssGGGGGGGGOOOOOOOOGGGI",
"GGGIGssssssGYGGGGGGGYOOO=OOGJIIGGIYGIssssssGYGGGGGGGGO OO4OGYGGI",
"GGYGGYssssGGGGGGGGGGGGOOOOGGGJGGJGGGGGs6ssGGGYGGGGGGGGOOOOGGGGGG",
"GVGGGGGssGJGGGGGGGGGGGGO GGGGGGGGvGGGGGssGYGGGvGIGGGGGGO GGGIGGG",
"IGGGYGGGGYGVGGGGGGGGGGGYGGYGJJGGGJGGIGGGGGGGGGGYGGGGGGGGGGYYGGGI",
"GGGYVGGGGGGGGGGGGGGGGJGGGGGGGGGGGGGGGGGGGGGIYGGGGGGGGGGGJGJGGJGG",
"GGGGGGGOOGGGGGGGvGGGIGGssGGGYGGJGGGGGGG OGGGGGGVGGGGGGGssGGGGGGG",
"GGGGGG OOOGGGGGGIGGGGGssssGGGGIVGGYGGGOOOOGGJGGYGGGGGIssssGGGGGG",
"GGGGGOOOOOOGGGGGGYGGGssssssGGIGGGGJGGOOOOOOGGGJJGGGGGss7sssGGGGG",
"GGGYOOOOOOOOGGGGIGJGssswssssGGGGGGGGOOOO OOOGGvGGGGGssssssssGGGG",
"GGYOOOOOOOOOOGGGGGJssssssssssGGIGGGOO OOOOO  GGGGGGssssssssssGGG",
"GGOOOOOO*OOOOOGGGGssssssssssssGGGGOOOO=OOOOOOOGGGJssssswssssssGG",
"GOO=OOOOOOOOOOOGYksss6sskss7sssGG OOOOOOOOOO OOGGsssskssssrssksG",
"GOOOOOOOO4OO OOIGssssssssssssssGGO OO2OOO 1OOOOJGsssswsssssssssG",
"GIOOOOOOOOOOOOGGGGssssssskssssGGGGOOOOOOOO OOOGGGGssssssssssssGG",
"GYGOOOOOOOOOOGGGJGGssssssssssGGYGGGOOOOOOOOOOYGGGGGssssssssssGGG",
"YGGGO O1OOOOGYGGGGGGsswwssssGGGGGGGIOOOOO OOGIYGGGGGssksss6sGYGG",
"GGIGGOO OOOGGGGYGGGIGssssssGGGvGIGGGGOOOOOOGGGGGGGGIGssssssGGGGG",
"GGGGGGOOOOGGGGIVGGGGGGssssGGGIGGGGGGIG OOOGGGGGGGGGGIGssssJGGJJG",
"GvGGGGIOOGGIGGJGGGGGGGGssGGGYGGGGGGIJGYOOGIGGJGGmGGGGGGssGGGGGGG",
"GGGGGGYGGJGGGGYGGGGGGGGGGYIGGGYGGGJIGGGYGYIGGIGGGGGGGGGGGGGGYJGG"
};
