/* XPM */
static char *_089ea7598574bd8aed11297113ae3cdNlYnAooHeCeMWeqq[] = {
/* columns rows colors chars-per-pixel */
"64 64 78 1 ",
"  c #7F5932",
". c #76583C",
"X c #77583C",
"o c #575755",
"O c #585856",
"+ c #595957",
"@ c #6E655E",
"# c #6E6560",
"$ c #7B6F61",
"% c #7B6F63",
"& c #7D6F62",
"* c #7D6F64",
"= c #7C7062",
"- c #7C7064",
"; c #7D7165",
": c #925A1D",
"> c #935B1E",
", c #925A1F",
"< c #95581F",
"1 c #94591F",
"2 c #955A1E",
"3 c #965A1E",
"4 c #965B1F",
"5 c #8C5A27",
"6 c #8D5B28",
"7 c #935B20",
"8 c #935B22",
"9 c #945921",
"0 c #965920",
"q c #955A20",
"w c #965B21",
"e c #965922",
"r c #955A22",
"t c #965B23",
"y c #945C21",
"u c #825734",
"i c #805932",
"p c #815935",
"a c #837165",
"s c #837364",
"d c #827265",
"f c #817366",
"g c #807267",
"h c #837366",
"j c #847264",
"k c #847266",
"l c #847467",
"z c #817368",
"x c #837268",
"c c #827469",
"v c #A79F94",
"b c #A79E95",
"n c #A69F95",
"m c #A69F97",
"M c #A6A094",
"N c #ACA698",
"B c #ADA799",
"V c #ADA59A",
"C c #ACA69A",
"Z c #ADA79B",
"A c #B2AA9D",
"S c #B3A99F",
"D c #B1AB9F",
"F c #B3AB9E",
"G c #B2AA9F",
"H c #B4AA9E",
"J c #B4AC9F",
"K c #B2A9A0",
"L c #B3ABA0",
"P c #B3AAA1",
"I c #B2ABA1",
"U c #B4AAA0",
"Y c #B5ABA1",
"T c #B4ABA2",
"R c #B2ACA0",
"E c #B3ADA1",
"W c #B3ACA2",
"Q c #B4ACA1",
/* pixels */
"LLLLLLLLLLLLLQLLLLLLLLLLLLLLULLRLALLLLALLLLLLLLLLLLLLLLLLLLLLLLL",
"nLLLUALhxALLLLLLLQAZLLLqqALLLLnLLLLLLLLhhLLULLLLLALLALL1qRLLULLL",
"ALLLLLhhhhLLULMLLLLLLLqqqqLLULLLLLLLLLhhhhLLULLLQnRLLL7q7qLLALLL",
"LLLLLhhjhhhLLLLLLRLLLqqq1qqLLRLULZQLLhhhhxhLLLLLLLLLLqqqqqqLLLUL",
"LALAhhhhhhhhLLLLLLLLqqqqq qqLLLLLLLLhhjhhhxhLLRLLLULqqqqqqq1LLLL",
"JLLhhhhjhhhhhQLQLLLqq7qqqq1qqLLALLLhhhhhxOhhhLLLLLLqqqqqqqqqqLLL",
"LLhhhhhhh&hhhhLALLqqqqqqqqq11qLLLLhhhhhhhhhhhhALALqqqqqqquqqqqRL",
"Lhh-hxhOhhhlhhhLLqqqqqqqq11qqqqLLhhhhl*hhhjhhhhLLqqqq51q,qqqq7qL",
"QhhllhhhhhhhlhhLUqqqqqqq7qqqqqqLQhhhlhhhhhjhhxhLLqqqq1qq7qqqqqqL",
"LLhhhhhhhhhhhhLQLU7qqqqq5q1qqqLLLLhh*hhhhhhhhhLLLQqqqq1qqqqqqqLL",
"LLLhhhhhhhhhhLLLLLUqqqqqqqqqqLQLLLLhhhhhhj#hhLLLLLLqqqq6qq71qLLL",
"LLLLhhh&hhhhLLQLLLLLqqqqqqqqRLLLLLLLhhhl$hhhLLULLLLLqqq1qq1qLLLL",
"ULLLLhhhlhhLLLLLLLLLUqqqqqqLQLLLLLLLLhhhlhhLLLLLALLLLqqqqqqLRLLL",
"LLLLLLlhhhLQALLLLLLLLLqqqqLLLLQLLLLLLLhlhhALLRLALLLQLLqqqqLLLLQL",
"LLLLLLLlhLLLLALLLLLLLUUqqLLLLULZLLLHALLhhALURLLLLLLLLLLqqLLLLQZL",
"LLLQLLLLLLLLLnLLLLLLLLLLLLLLLLALLLQLQLLLLLLQLLZLLLLLLLLLLLLLLLLL",
"ALLLRQLLLALLLLULLLLLALLLULLLLALLLAnULLLLLLULLLLLLLnLLLLLLLLQLQLL",
"LRnLLALqqLLLLLRULLLLLALhhLLUQLALLALLALLqqLLLLLALLLLLLLAhhLLAHLLL",
"LLLQLR1qqqLLLALLLLLLLLxhlxLALLLLLLLLLLqqq1LLLALLLLLLLLxhlhLLLLLL",
"LLLALqqqqqqLALLLLLLLLhhhhlhLLLLLLALLLq7,qq7LLLLLRLLLLljhhhhLLLLL",
"LLLAqqqqqqq1LLLLLLLLhhhhj@hhLLLALLLL1,qqqqq1LLLULAQLh@hhlhhhLLLL",
"LLLqqqq1qqqqqLLLLLLhhhhhhhhhhLLLLLL1iqqqqqqq7LLULALhhjjhhhhhhLLL",
"LU1qqiqqq5qq7qLALLhhhhhjhhhhhhLLLLqqqqqqqqqqq1LLLLhhhhhhhhh*hhLL",
"Lqqqqqqq1qqqqqqLLhhhxOhhhhhhhhhLLqqqq.7q6qqqqqqLLhhhhhhlhhhlhhhQ",
"UqqqqqqqqqqqqqqLLhhhhhhlhjhhhhhLUqqqqqqqq5qqqqqLLhhhhhhhhhhhlhhL",
"LU7qqqqqqqqqqqULLLhhhhhh*hhhhhLLLU7qqqqqqqqqqqULLLhhxhhOhhhhhhLL",
"LLUqqqqqq,qqqLLLALLhhhhlhhhhhQLLLLUqqqqqq1q7qLLLLLLhhhhhhhhhhLLL",
"LLLLqqqq6qqqLLLLLLLQhhhhhhhhLLLLLLLLqqqqqqqqLLLULLLLhhhjhhhhLQLL",
"LLLLUqqqqqqLLLLLLLLLLhhhhhhLLLLLLLLLUqqqqqqRQLLLJLLLLhhhlhhLLLLL",
"LLLLLLqqqqLLLLLLLLLLLLhhhhLLALLQLLLLLLqqqqRLLLZLALLLRLhhhhLLLLAn",
"LLLLLUUqqLLLQLLLLLLLLLLhhLLLLLLLLLLLLUUqqLLULLLLLLLLLRLhhLLQLLLL",
"LLLLLLLLQLLLALLLLnLLLLLLLLQLLLZRLLLLLLLLULLLLLLLRLLLLLLLLQLLLLLL",
"LLLLLLLLLLLLLALLLLLLRLLLLLULLLLLALLLQLLLQLLHLLLLLnLLLUALLRLRALLL",
"LLLLLLLhhRLLLLLLUULLLLL1qLLLLLALLLLLLLLhlLLLLLLLLQLLLLLqqLLLLLLL",
"LLLLALhhhhLQLLLQLLQRLRqqq1LLLALLMLLLLLhhhhLLLQLLLLLLLLqqqqLLLLQU",
"LLLLLhlhhxhLLLLUZLLLU1qqqq7LLLLLLLLLLhhhhhhLLLQQLLLRLqqqqqqLLLLL",
"LLULhhhhjhhlLLLLLLLL,qqqqqq1LLLURQLLhhhlhhhlLLLQULLAqqqqq1qqLLLL",
"LLLhhhhjOhhlhLLALLL1qpqqqqqq7LLURLLhhh=hhhhhhLLRULLqqq7qq6qqqLLL",
"LUh@lxhhhhlhhhALLAqqqqqqqqqqq1LLLLhlhhhhhhhhhhLALLqqq7qqqq1qqqLL",
"Lhhhjlhjhhh-hhlLL1q1qqqq6qqqqqqLLhhjhlh-hhhh*hlLL7qq5qqqqqqqqqqL",
"LhhhhhhhhhhhhhhLUqqqqqqqqqqqqqqLLhhhh@hhhhhhhhhQQq,yqqqqqqqqqqqL",
"QUhhhh*hhhhhhhLLLU7qqqqqq11qqqLLLLhhhhhxhhhhhhLALLqqqqqiqqqqq1LL",
"LLQhhchhhhhhhLLLLLUqqqqqqq.qqLLLLRLhhhhhhhhhhLLLQULqqq1qqqqqqLLL",
"LLLLhhhhhhhhLLLLLLLLqqqqqqqqLLUALLLLlhhhhhhhLLALQLLLqqqqqqqqLLLU",
"LLLLLhhhhlhLLALLLLLLUqqq5qqULLALLLLLLhhjhhhLQLLLLLLLAq1qq.qLLLRL",
"LQALLQhhhhLLLLLLLLLLLLqqq1LLLLLLULLLLLhohhLLLALLLLLLLLq1qqRALLLL",
"AZLLLLUhhLLLLLLLLLLLLUUqqALLLRRLLnLLLLLlhLLALLnLLLLLLLL1qLLQLLLL",
"LALLLLQLLQLZLLLLLLLLLLLLLLLULLLLALULLLLLQLLLLLLLLLLLLLLLLLLLLRLL",
"LLLLZLLLLLLLLLLLALLLLAALLLLLLALRLULLLLALLLLALLLLLLLLLLLLLLLLLULL",
"LLULLLLqqLLLLLLQnLLQLLLhhRLLLLLRURLLLLLqqLLLQLLZLLLLLLLhlLLLQLLL",
"LULLLLqqqqLLLLLLLLLLLLhhhhLLLLLZLLALLLqqqqLLLULLLLLLLLhhhhLLLQLL",
"LLQLLqqqqqqLLLLRLLLLLhhhhhhQALLALLLALqqq1qqLLLALLLLLLhh@hlhQLLLL",
"LLLLqqqqqqqqLLLLLQLLhjh-hxhhLLAULLLL1qqq7qqqLLMALLLRhhhhhhhlLLLL",
"LLL1qqqqqqqqqLLLULLhhhhhhhjjhLLLLLLqqqqqqqqqqLLLLALhhhhxhhhhhLLL",
"LLqqqqqq6q1qqqLLLLhhhhhhhhhhhhLLALq7qq5qqq7q7qLLLLhhhhh-hhhhhhLL",
"L1q5qqqqq1qqqqqALhljhOhhhhh#hhhQLqqqqqq1qqqqqqqLLhhlhhhjhh&lhhxL",
"Lqqqqq1qq.qqqqqLLhhhhhjjhhhhhhhLLq7qq.qqqqiqqqqALhhjh&hhhhhxhhhL",
"LAqqqqqqqqqqqqLLALhlhhhhlhhhhhLALL1qq1qqq1qqqqLLLLhlhhhhhhhhhhLL",
"LALq1qqqqqqqqLLLLLLhhhhhhhhhhLLLLLAqqqqqqqqqqLLLLLLhhhhhhhhhhLUL",
"LLLLqqqiqqqqLLLLLLLLhh-$lhlhLLLLLLLLqqq7qqqqLLLUALLLhhhhhhOhRALL",
"ALLLLqqqqqqLLLQALALLLhhhhhhQQLnLLLALQqqq11qQRLULLLLLLhhhhhhLULLL",
"LLLLLLqqqqQALLLZLLLLLLhhhhLLULLLUQLRRLq,qqLLAQLLLLLLLLhhhhLLLULL",
"LnLLLLLqqLALALLLLLLLLLLhxLLLLLLLRLLLALLqqLLLLLALnLLLLLLhhLLLLLLL",
"LULLLLLLLLLLLLLLLLLLLLLLLLLLQLLLLLQLLQLLLLLLLLLLLLULRLLLLRLLLLLL"
};
