/* XPM */
static char *ba5fb6b30c5845b0849a6ada05f35d11pDqfoJOvMqfZuF1W[] = {
/* columns rows colors chars-per-pixel */
"64 64 76 1 ",
"  c #7D7C7A",
". c #7E7D7B",
"X c #D17F2B",
"o c #D17F2D",
"O c #D47F2C",
"+ c #D47F2E",
"@ c #C57F37",
"# c #B67D46",
"$ c #B77E47",
"% c #B97D47",
"& c #A77D55",
"* c #A87E54",
"= c #D1812A",
"- c #D2802A",
"; c #D2822B",
": c #D4802A",
"> c #D1812C",
", c #D2802C",
"< c #D3812D",
"1 c #D2802E",
"2 c #D2812F",
"3 c #D3812F",
"4 c #D5802D",
"5 c #C68136",
"6 c #C68038",
"7 c #C78139",
"8 c #C98139",
"9 c #A78055",
"0 c #9D9087",
"q c #B09D8C",
"w c #B19E8D",
"e c #B39D8F",
"r c #B19E8F",
"t c #B29F8E",
"y c #B29F90",
"u c #B29F91",
"i c #B9A48F",
"p c #B9A491",
"a c #BAA590",
"s c #BBA590",
"d c #BBA691",
"f c #B9A493",
"g c #BBA492",
"h c #BAA592",
"j c #B8A692",
"k c #B9A793",
"l c #BBA693",
"z c #B8A594",
"x c #BBA494",
"c c #BAA594",
"v c #EBE1D5",
"b c #ECE3D4",
"n c #ECE2D6",
"m c #EDE3D7",
"M c #EEE2D6",
"N c #EDE4D5",
"B c #F4EBDA",
"V c #F4EBDC",
"C c #F6EADC",
"Z c #F3ECDC",
"A c #F5ECDD",
"S c #FEF3E1",
"D c #FCF3E2",
"F c #FEF2E2",
"G c #FFF2E2",
"H c #FFF3E2",
"J c #FFF3E3",
"K c #FDF4E3",
"L c #FFF4E2",
"P c #FEF2E4",
"I c #FFF2E5",
"U c #FFF3E5",
"Y c #FDF4E5",
"T c #FFF4E4",
"R c #FEF5E4",
"E c #FFF4E6",
/* pixels */
"JJJJJJJJJJJJJJJUJJKJJKJJJJJJJJJJJJJJJJJJJJJUJJJKJJJJJJJJJUJJJJKJ",
"nUJJJJJggJKUJJJJJJJBJJJ,XJUJJJnJJJJKJJJggJJJJKJJJJJJJJJ,,JJJJJJK",
"KJJJTJggggJUJJnJJJKJJJX,,,JKJJJJUJJJUJggggJJJJJJJnKJJJ,,=,JJJKJJ",
"UJJJJggggggJJJTJJJJTJ,,,,,,JJJJJJVJJUgggxggKJJJJJJJJJO,,,,,JTJJJ",
"JJKJgxggggggTJJJJJJJ,,,,,$,,JJJJJJKJggggggggJJJJJJJJ=,,,,,,OJJJJ",
"UJJggggggggggJJJJJJ,,,,,,,,,,JJJJJJgggggg.gggJKJJJJ,:,,,,,=,,JJJ",
"JJgggggggtggggJJJJ,,,,,,,,,,,,JUTJgggggjggggggJJUJ,,,,,,,$,,,,JU",
"Tgguggg.gggggggJJ,,,X,,,,,,,,,,KJgggjxtggggggggTJO,,,7,,O,,,,=,J",
"JggggggggggggggKJ,,,,,,,,,,,,,,JJggggggggggggggJJ,,=,,O=X,,,,,,J",
"KJgggggggggxggJJJJ,,,,,,5O,,,,KJJJggtgggggggggJJJJ,,,,,,X:,,,,JK",
"JJJggggggggggJJJJJJ,,,,,,,,,,JKJJJJggggggg0ggJJJJJJ=,,,8,,X,,JJJ",
"JJJJgggtggggJJUJJJJJ,,,,,,,OTUJJJJTJgggguxggJJJJJJJJ,,,,,,,,JJJJ",
"KJJJJggggggJJJJJJJJJJ,,,,,XJJJJJJTJJJggggggKUJJJJJJJU,,,,,,JJJJJ",
"JUJJJJggggJKJJJJJJJJJJ,,,OJJJJJJJJJJJJggggJJUJJJTJJKJJ,,,,JJJKJJ",
"JJUJJJJggKKKJJUJJJJJJJJ,,JUJJJJVJJJTJJJggJJJJJJJJJJJJUJ,OJJJJJZJ",
"JJJJJJJJKKKKJnJJJJJJJJJJJJJJJTJUUUJJJUJTJJKJJJVJJJJJJJJJJJJJJJJT",
"JJJJJJJJJJJUJUJTJJTUJTJUJJJJJJJJJJnJTKJJJKJJJJJTTJnJJJJJTJUJJJUU",
"JJvJJJU,,JJJJJTJJJJJJJJggJJJJJJJJJJJJJJ,,JJJKJJJJJJJJKJggJJJTJJJ",
"JJJKJJ,,,,JJJUKUJJJJJKggggJJJJJJJJJKJJ,,,,JUJJJJKJJTKJggggJJJJJJ",
"JJJJJ,,,,,,JJJJJJJJJJggggggJJKJJJKJJJ,,,,,,JKJKJJJJJJggggggJJJTJ",
"JJKJ,,,,,,=,JJJUJJJTxgggg0ggJJJJJJJJ,,,,,,,,JUJJKJKUg0ggggggJTJJ",
"UTJ,,,O,,,,=,JJJJJJggggggggggJJJJJJ=$O=,,,=,,JJJJKJggggggggggJJJ",
"JJ,,,$,,,8,,,,JJJJggggggggggggKJJJ,,X,,,,,,,,,JKJJgggggggjgtggJJ",
"J,,,XX=,X,,,,,,JJgggg.gggggggggJT,X,,&,,7,,,,,,JJggggggggggggggJ",
"J,,,,,,,,,,,,,,JJggggxggggjggggJJ,,,,,,,,7,,=,OJUgggxiggggxggggJ",
"JJ,,,,,,,,,,,,JJJJggggggtgggggJJJJ,,,,,,,O,,,,JJJKggggg.ggggggJJ",
"JJJ,,,,,,,,,,JJJJJJggggggggggJJJJJJ,,,,,,,,4XJJJTJJggggggggggJJJ",
"JJJJ,,,,7,,,JJJJJTJJggggggggJJJJJJJJ,,,,,,,,JUJJJJJJggggggggJKJJ",
"JJJJJ,,,,,,JJKTTJJJJJggggggJJUJJJJJJJ,,,,,,JJUJJTJJJJggggggJJJKJ",
"JJJJJJ,,,,JJJJJJJKJTJJggggJJJJJJJJJJJJ,,,,JJJJVJJJJJJJggggJJJJJn",
"JJJJJJJ,,JJUJJJJTJJJJJJggJJJJJJJJJJJJJJ,,JJJJJJTJJJJJJJxgJJUJJUJ",
"JJJJJJJJJJJJJJJJJnJJJTJJJJJJJJAJJJJJJJJJJJKUJKJJUTJTJKJJJJJJJJJJ",
"JJJJJJJJJUJTJJJTJJUUJJJJJKJJJJJTJJJJJJJJKJJJJJKJJnJJJTJJJJJJJJJJ",
"JKJJJJJggKJJJJJJJJJJJJJ,,JJJKJJJJJJKJJJggJJJJJJJJJJJJJK,4JJKJJJJ",
"JJJJTJggggJJJJJKUJJTKJ,,,,JUJJJJnJKJJJgggxJJJJJJJJKKJJ,,,,JJJJTJ",
"JJJJJggggggJJJTJVJKJJ,,,,,,JKJKJJJJKJgggxggJJJJJJJKJTO,,,,,JJUJJ",
"JJJJggggggggKJJJJJJJ,,,,,,,,JUJJJJJJggggggggJJTJJJKJ,,,,,,,,JJUJ",
"JTJggggg.ggggJJJJJJ,,%,,,,=,,JJJJJTgggtggggggJJJTJJ,,,X,,7,,,TJJ",
"JKx0ggggggggggJJJJX,,,,,,,,,,,JKJJgxggggggggggJJJJ,,,,,,,,,,,,KJ",
"JggggggggggugggJJ,,,,,,,7,,,,,,JJggggggtggggtggUK,,,7O,,,==,,,,J",
"JggggggggggggggKJ,,,,,,,,,,,,,,JJgggg0gggggggggJJ,,,=,O,,,,,,X,U",
"JJggggtgggggggJKJJ,,,,,,,X,,,,JKJJggggxgggggggJJJJ=,,,,$,XX,=,JJ",
"JJTggxgggggggJUJJJJ,,,,,,,*,,JJUJJJggggxgggggJTJKJJ,,,,,,,,,,JJJ",
"TJJJggggggggJJJJJJJJ,,,,,,,,JJJJJJJJxgggggggJJJJJJJU,O,,,,,,JJUJ",
"JJJUJggggggJTJJJJJJJJ,,,@,,TUJJJJUTJUggggggJTJJJJJJJJ,,,X*,JUJJJ",
"JJTJJTggggJJJJJJJJJJJJ,,=,JJJJJJKJJJJJg.ggJJJTJJJJJJJJ,,,OTJJJJJ",
"JVJJJJJggJKJJJJJJJJJJJJ,,JJJUJKJJnJJJJJggJTJJJnJKJJJJJJO,JJUKUJJ",
"UJJJTJJJJTJVJJJJJJJJJJJJJJJJJJJJJKJJUJJJJJJJJJJTJJJJJJJJJJKJJJJJ",
"JUJJVJJJJJJJJJJTJJJJJKJJJJJJJJJJTJUJUJJJJJJJTJJJJJJJJJJJKJKJJKJJ",
"TJJJJJJ,,JJJJJJTnJJJUJJggJJJTJJKJTJJJJJ,,JJJJJJVJJJJJJJggJJJJJJJ",
"JJJUJJ,,,,JUJJJKUJJJJJggggJJJJUVUKUJJJ,,,,JJJJJJJJJJJUggggJJJJJJ",
"TJTJJ,,,,,,JKUJKJTJJJggggggJJUJJJJJJJ,,,,=,JJJKJJJJJJgg0gggJJJJJ",
"TTJJ,,,,,O,,JJJJUJKJgggtggggJJJJUJJJ,=,,,,,,JJnKJJJJggggggggJJJJ",
"JJJ,,O,,,,,,,JJJJJKggggggggggJJUJJJ,=,,,,,,,,JJJJJJggggggggggJJJ",
"JJ,,,,,,8,,,,OJJJJggggggggggggJJJJ,,,,8,=,,,,,JJJKgggggtggggggJJ",
"J=,7,,,,X,,,,=,JTxggg.ggxgg0gggJJ,,,,,,X,,,,,,,JJggggxgggguggxgJ",
"J,,,,,,,,9,,,,,JJggggggggggggggJUO,,,*X,,O$,,O,JJggggtgggggggggJ",
"JJ,,,,,,,,=,,,JJJJgggggggxggggJJKJO,,,,,,o,,O,JTJJggggggggggggJJ",
"JJU,,,,,,,,,,JJJKJJggggggggggJJTKJJ,,,,,,,,,,KJJJJJggggggggggJJJ",
"JJJJ,,,$,,,,JKJJJJJJggttggggJJJJJJJJO,=,,,,,KJUUJJJJggxggg.gJTJJ",
"JKJJJ,,,O,,JJJKJJJJUJggggggJJJnJJJJUJ,,,,,OJJJJJJJJUJggggggJJJJJ",
"KJJJJJ,,,,JTJJJVJJJJJJggggJJJUJJJJJJJJ,,,,JJJJTJJJJJUJggggKJJKKJ",
"JnJJJJJ,,JJUJJJJJJJJJJJggJJJTJJJJJJKJJJ,,JJJJJJJNJJJJJJggJJJJJJJ",
"JJJJJJJJJJJJJJJJJJJJJJJJJTUJJJTJJTUJJJJUJJJJJJKJJJJJJJJJJJJJTKJJ"
};
