/* XPM */
static char *e07af3cefec84b5ca8d37af03c749fb8j8v7QmzRMxflxXr9[] = {
/* columns rows colors chars-per-pixel */
"64 64 82 1 ",
"  c #353743",
". c #353744",
"X c #353942",
"o c #343843",
"O c #363942",
"+ c #373A43",
"@ c #353944",
"# c #353945",
"$ c #363844",
"% c #363845",
"& c #373945",
"* c #363A45",
"= c #373946",
"- c #383842",
"; c #383844",
": c #393945",
"> c #3A3D46",
", c #3B3E47",
"< c #40434A",
"1 c #41444B",
"2 c #40434C",
"3 c #48474C",
"4 c #49484D",
"5 c #4A494E",
"6 c #575755",
"7 c #585856",
"8 c #595957",
"9 c #6E655E",
"0 c #6E6560",
"q c #7B6F61",
"w c #7B6F63",
"e c #7D6F62",
"r c #7D6F64",
"t c #7C7062",
"y c #7C7064",
"u c #7D7165",
"i c #837165",
"p c #837364",
"a c #827265",
"s c #817366",
"d c #807267",
"f c #837366",
"g c #847264",
"h c #847266",
"j c #847467",
"k c #817368",
"l c #837268",
"z c #827469",
"x c #A79F94",
"c c #A79E95",
"v c #A69F95",
"b c #A69F97",
"n c #A6A094",
"m c #A7A096",
"M c #A7A098",
"N c #ACA698",
"B c #ADA799",
"V c #ADA59A",
"C c #ADA49B",
"Z c #ACA59B",
"A c #ACA69A",
"S c #ADA79B",
"D c #B2AA9D",
"F c #B3A99F",
"G c #B1AB9F",
"H c #B3AB9E",
"J c #B2AA9F",
"K c #B4AA9E",
"L c #B2AC9E",
"P c #B4AC9F",
"I c #B2A9A0",
"U c #B3ABA0",
"Y c #B3AAA1",
"T c #B2ABA1",
"R c #B4AAA0",
"E c #B4AAA1",
"W c #B5ABA1",
"Q c #B4ABA2",
"! c #B5ABA2",
"~ c #B2ACA0",
"^ c #B3ADA1",
"/ c #B4ACA1",
/* pixels */
"UUUUUUUUUUUUU/UUUUUUUUUUUUUUUUUUUDUUUUDUUUUUUUUUUUUD~DUURUUUUUUU",
"vUUURDUflDUUUUUUUUDAUUU&OUUUUUnUUUUUUUUffUURUUUUUU/UUUU&&/UUDDUU",
"DUUUUUffffUURUnUUDUUUU&&&&DUU~DUUUUUUUffffUURUUUUvU~UU&&&&UUUDDU",
"UUUUUffgfffUUUUUUUUUU&&&&&&U~UUUUA/UUfffflfUUUUUUUUUU&&&&&&UPUDU",
"UDUDffffffffUUUU~UUU&&&&O<&&UUUUUUUUffgffflfUU~UUU/U&&&&&&&&UUUU",
"PUUffffgfffff/U/URU&&.&&&&& &UDUUUUfffffl7fffUUUUUU&&&&O&&&&&RUU",
"UUfffffffeffffUDUU&&&&&&&&&&&OUUUUffffffffffffDUUU&&&&&&&<&&&&RU",
"Uffyflf7fffjfffUU&&&&&&&O&&&&&&UUffffjrfffgffffUU &&&,&&O&&&&&&R",
"/ffjjfffffffjffUR&&&&&&&& O&&&&U/fffjfffffgfflfUR&&&&&&&&&&&&&&U",
"UUffffffffffffU/UR&&&&&&,&&&&&UUUUffrfffffffffUUUR&&&&&&&&&&&&UU",
"UUUffffffffffUUUUUR&&&&&OO&&&UU/UUUffffffg0ffUUU/UD&&&&,&&.&&UUU",
"UUUUfffeffffUU/UUUUU&&&&&&&&~UUUUUUUfffjqfffUURUUUUU&& &&&&&UUUU",
"RUUUUfffjffUUUUUUUUUU&&&&&&UULUUUUUUUfffjffUUUUUUUUUU&&&&&&UDUUU",
"UUUUUUjfffU/DUUUUUUUU/&&&&UULUUUUUUUUUfjffDUU~UDUUUUUU&&&&UUU~UU",
"UUUUUUUjfUUUUDUUUUUUUUU&&UUUUUUAUUUKDUUffDUR~UUUUUUUUUU&&UUUUUAU",
"UUU/UUUUUUUUUvUUUUUUUUURUUUUUU~UUU/U/UUUUUU/UUAUUUD/UUURUUUUUUUU",
"UUUUUUUURUUUUDUUUUUUDUUURUUUUDUUUUvUUDUURUUU/UUUUUvUUUUUUUU/U/UU",
"UUMUUUU&&UUUUUUUUUUUUDUffUUR/UDUUUUUUU~&&UUUUDUUUUUUUUDffUUDKUUU",
"UUUUUU&&&&DUUUUDUUUUUUlfjlUDUUUUUUUUUU&&&&UUUDDUUUUUUUlfjfUUUUUU",
"UU~UU&&&&&&UUUUUUUUUUffffjfUUUUUDUUUU& &&&&UDUU/~UUUUjgffffUUUUU",
"~U/D&&&& &&OUUUUUUUUffffg9ffUUUD/UUU& &&&&&&UUUUUD/Uf9ffjfffUUUU",
"UUU&&&O&&&O&&DUUUUUffffffffffUUUUUU&<&&;&&&&&RUUUDUffggffffffUUU",
"UU&&&1&&&,&&&&RUUUfffffgffffffUUUU&&;O&&&O&&&&RUUUfffffffffrffUU",
"U&&&O&&&O&O &&&RUfffl7fffffffffUU&&&&4&&,&&&&&&RUffffffjfffjfff/",
"R&&&&&&&&&&&&&&UUffffffjfgfffffUR&&&&&&&&,O & &UUfffffffffffjffU",
"UR&&&&&&&&&&&&DUUUffffffrfffffUUUR&&&&&&&&O&&&UUUUfflff7ffffffUU",
"UUR&&&&&&O&&&UDUDUUffffjfffff/UUUUR&&&&&O&&&&UUUUUUffffffffffUUU",
"UUUU&&&&,&&;UUUUUUU/ffffffffUUUUUUUU&&&&&&&&UUUUUUUUfffgffffU/UU",
"UUUUU&&&&&&UUUUUUUUUUffffffUUUUUUUUUU&&&&&&UUDUUPUUUUfffjffUUUUU",
"UUUUU/&&&&UUURUUUUUUUUffffUUDUU/UUUUU/&&&&UULUAUDUUU~UffffUUUUDv",
"UUUUUUU&&UUUUURUUUUUUUUffUUUUUUUUUUUUUU&&UUUUUUUUUUUU~UffUU/UUUU",
"UUUUUUURUUUUDU/RUvUUUUUUUU/UUUA~UUUUUUURUUU~UUUU~UUUUUUUU/UUUUUU",
"UUUUUUUUUUUUUDUUDUUUUUU/RUUU/UUUDUUU/UUU/UUKUUUU/vUUUUUURUU/UUUU",
"UUUUUUUff~UUUUUUUU~UUUU&&UUUUDUUUUUUUUUfjUUUUUUUUUUUUUU&&UUUUUUU",
"UUUUDUffffU/UUU/UU/~UU&&&&UUUDDUnUUUUUffffUUU/UUUUU~UU&&& UUDUUU",
"UUUUUfjfflfUUUURAU~DU&&&&&&UDUU/UUUUUffffffUUU//UU~UD&&O&&&UUUUU",
"UURUffffgffjUUUUUUUU&&&O&&&&UUUU~/UUfffjfffjUUU/RUUU&&&&&&&&UUU/",
"UUUffffg7ffjfUUDUUD&&2&&&&&&&RUU~UUffftffffffUU~DUU&&&&&&,&&&RUU",
"URf9jlffffjfffDUUU&&&&O&&O&&&&RUUUfjffffffffffUDUU&&&&O&&&&&& RD",
"UfffgjfgfffyffjUU&&&O& &,&&&&&&RUffgfjfyffffrfjUU&&&,&&&&&&&&&&R",
"UffffffffffffffUR&&&&&&&&O&O&&&UUffff9fffffffff/D&&&&&O&&&.&&&;U",
"/RffffrfffffffUUUR&&&&&&& &&& UUUUffffflffffffUDUR&&&&&<&&&;&&UU",
"UU/ffzfffffffUUUUUR&&&&&&O4&&UDDU~UffffffffffUUU/UR  &&& &&&&PUU",
"UUUUffffffffUUUUUUUU&&&&&&&;UUUUUUUUjfffffffUUDUUUUU&&&&&&&&UD~U",
"UUUUUffffjfUUDUUUUUUU&&&,&&UUUU/UUUUUffgfffU/UUUUUDDU&&&&4&/UUUU",
"U/DUU/ffffUUUUUUUUUUU/&& &UUUD//RUUUUUf6ffUUUDUUUUUUUU &&&UUUUDR",
"DAUUUURffUUUUUUUUUUUUUU&&UU/UURUUvUUUUUjfUUDUUvUUUUUUDU&&UUU~UUU",
"UDUUUU/UU/UAUUUUUUUUUUURUUUUUUURDURUUUUU/UUUUUUUU/UUUUURUUUUUUUU",
"UURUAUUURUUUUUUUDUUUUDDUUUUUUDU~RUDUUUUUDUDUUUURUUUUUUUUUUUUURUU",
"UU~UUUU&&UUUUDUUvUU/UUUff~UUUUU~URUUUUU&&RU~U~UAUUUUUUUfjUUU/UUU",
"UUUUUU&&&&UUDDUUUUUUUUffffUUUUUADURUUD&&&&UUUUUUUUUUUUffffUUU/UU",
"UDUUU&&O&&&UUPUUUUUUUffffff/DUUDUUUUU&&&&&&UUUUUUUUUUff9fjf/UUUU",
"UUUU&;&&&&&&/UU/U/UUfgfyflffUUDRUUUU-&& &&&&UUvDUUU~fffffffjUUUU",
"UUU&&&&&OO&&&RUURUUfffffffggfUUUUUD&&O&&&&;&&UUUUDUfffflfffffUUU",
"UUO&&&&&,&&&&&RUUUffffffffffffUUUU&&&&,&&&&&&&UUUUfffffyffffffUU",
"U&&,&&&&&&O&&&&RUfjgf7fffff0fff/U&&& O&O&&&&&&&UUffjfffgffejfflU",
"U&&&&&&&;3&&&&&DUfffffggfffffffU/&&&&4&&&&2&&&&UUffgfeffffflfffU",
"UD&&&&&&;O&O&&UDDUfjffffjfffffUDUU&&&&&&&&&&&&UUUUfjffffffffffUU",
"UUU& &&& ;&&&DUUUUUffffffffffUUUUU/&&&&&&&&&&/UUUUUffffffffffURU",
"UUUU&O&<&&;&UUURUUUUffyqjfjfUUUUUUUU&&&&&&&;UUDUDUUUffffff7f~DUU",
"UUU~U&&&&O&UUUUUUDUUUffffff//UvUUUUUU&&&&&&UUUDUUUUUUffffffURUUU",
"UU~UUU&&&&UUUUUAUUUUUUffffUURUUUUUUUUU&&&&UUURUUUUUUUUffffUUURUU",
"UvU/UUU&&UUUUUUUUUUUUUUflUUUUUUUURUUDUU&&UUUUURUvUUUUUUffUUUUUUU",
"UUUUU/UUU~UUUUUUUUUUUUUUUUUU/UUUUU~UUUUUUUUUUUURUURU~UUUU~UUUUUU"
};
